<svg width="105" height="108" viewBox="0 0 105 108" fill="none" xmlns="http://www.w3.org/2000/svg">
<path d="M99.4909 105.968L57.7342 55.7038C53.8935 51.568 51.6793 51.4942 47.664 55.7038L45.841 57.6137C40.833 63.7271 41.5892 66.1331 45.841 69.5938L99.4909 105.968Z" fill="#6FC4DE"/>
<path d="M0 107.009L33.5095 36.6911C35.9972 32.0138 38.6314 31.9165 41.4094 34.868C44.1874 37.8196 45.2292 39.7295 45.2292 39.7295C47.6113 44.6373 47.3644 47.356 43.6665 51.97L0 107.009Z" fill="#848682"/>
<path d="M104.61 104.58C104.61 104.58 59.728 9.60737 57.0368 4.31159C54.3457 -0.984195 52.0947 -1.5509 49.3105 3.44347L44.4491 13.9477C40.3338 22.1266 40.4394 25.7929 44.4491 30.8761L104.61 104.58Z" fill="#2DB3B0"/>
</svg>
